<svg width="18" height="18" viewBox="0 0 18 18" fill="none" xmlns="http://www.w3.org/2000/svg">
<path fill-rule="evenodd" clip-rule="evenodd" d="M2.5742 2.38863C-0.311752 4.57851 -0.869233 9.22006 1.4038 13.1594C3.67684 17.0987 7.97651 18.9344 11.3152 17.533C12.1807 17.1695 12.963 16.7784 13.8809 16.2455L9.42411 8.52706L4.96736 0.808594C4.04644 1.33835 3.31648 1.81883 2.57112 2.38863H2.5742Z" fill="url(#paint0_linear_6827_101592)"/>
<path fill-rule="evenodd" clip-rule="evenodd" d="M4.97031 0.808408C1.5084 2.80732 0.698364 7.88315 3.15928 12.1459C5.62019 16.4086 10.4219 18.2443 13.8807 16.2453C17.3427 14.2464 18.1527 9.17059 15.6918 4.90788C13.2309 0.645169 8.42915 -1.19051 4.97031 0.808408Z" fill="url(#paint1_radial_6827_101592)"/>
<path fill-rule="evenodd" clip-rule="evenodd" d="M6.15319 2.38199C3.566 3.87578 3.02392 7.78429 4.94584 11.1138C6.86775 14.4432 10.5237 15.9278 13.1109 14.434C15.6981 12.9402 16.2402 9.03169 14.3183 5.70222C12.3963 2.37275 8.74039 0.888188 6.15319 2.38199Z" fill="#2E73CE"/>
<g style="mix-blend-mode:multiply" opacity="0.5">
<path fill-rule="evenodd" clip-rule="evenodd" d="M12.9076 7.01998C11.0873 3.86915 7.62543 2.46159 5.17683 3.87531C4.82571 4.07859 4.51464 4.32807 4.2436 4.61759C4.63476 3.67203 5.27539 2.88663 6.15319 2.38151C8.74039 0.887714 12.3963 2.37535 14.3183 5.70175C16.2402 9.03122 15.6981 12.9397 13.1109 14.4335C12.923 14.5413 12.729 14.6337 12.5319 14.7107C14.2998 13.026 14.5154 9.80738 12.9045 7.01998H12.9076Z" fill="url(#paint2_radial_6827_101592)"/>
</g>
<path fill-rule="evenodd" clip-rule="evenodd" d="M13.4651 6.19454C11.7064 3.14843 8.49399 1.64539 5.97763 2.55707C5.89755 2.58479 5.81747 2.61867 5.74047 2.65255C5.80823 2.60327 5.87907 2.55399 5.94991 2.50779C6.01767 2.46467 6.08543 2.42155 6.15319 2.38151C8.74039 0.887714 12.3963 2.37535 14.3183 5.70175C16.2402 9.03122 15.6981 12.9397 13.1109 14.4335C13.0431 14.4736 12.9723 14.5105 12.9015 14.5475C12.8245 14.5844 12.7475 14.6214 12.6705 14.6553C12.7382 14.6029 12.806 14.5506 12.8707 14.4951C14.9189 12.7734 15.2238 9.24066 13.4651 6.19454Z" fill="url(#paint3_linear_6827_101592)"/>
<g filter="url(#filter0_d_6827_101592)">
<path fill-rule="evenodd" clip-rule="evenodd" d="M7.26359 10.7639C4.54704 9.3071 4.51316 9.19006 6.21024 7.31126C6.33652 7.17266 6.38272 6.98171 6.355 6.74455C5.96692 3.52903 6.04084 3.48283 8.63419 5.42939C8.82515 5.57107 9.01303 5.62651 9.19783 5.58647C11.6741 5.05671 11.7573 5.14295 11.6618 8.22602C11.6557 8.45394 11.7234 8.6757 11.8651 8.88822C13.7839 11.7773 13.7593 11.8758 11.1074 11.8358C10.9134 11.8358 10.7655 11.9189 10.6701 12.0883C9.37955 14.4045 9.28099 14.3768 7.74099 11.2691C7.62703 11.0411 7.46687 10.8687 7.26975 10.7639H7.26359Z" fill="url(#paint4_radial_6827_101592)"/>
</g>
<g style="mix-blend-mode:screen" opacity="0.75">
<path d="M8.74832 6.10421C8.7514 6.18737 8.8438 6.27977 8.9516 6.30749C9.0594 6.33521 9.14256 6.28593 9.1364 6.20277C9.13332 6.11961 9.04092 6.03645 8.93312 6.00873C8.82532 5.98101 8.74216 6.02105 8.74524 6.10421H8.74832Z" fill="#FFFBEB"/>
</g>
<path style="mix-blend-mode:screen" fill-rule="evenodd" clip-rule="evenodd" d="M6.95064 4.76856C7.157 5.08888 8.13644 5.8558 8.5584 5.89584C8.7586 5.92972 8.78632 5.83116 8.58304 5.61248C8.3428 5.35376 7.40648 4.66692 7.04304 4.49444C6.81512 4.38664 6.79356 4.52216 6.95372 4.76856H6.95064Z" fill="url(#paint5_radial_6827_101592)"/>
<g style="mix-blend-mode:screen">
<path d="M7.98592 11.1523C7.98592 11.1523 7.99516 11.2078 8.03828 11.2817C8.0814 11.3556 8.1276 11.4234 8.13992 11.4265C8.15532 11.4265 8.13068 11.3587 8.08756 11.2848C8.04444 11.2109 7.99824 11.1523 7.98592 11.1554V11.1523Z" fill="#FFB600"/>
</g>
<g style="mix-blend-mode:screen">
<path d="M11.6519 9.07422C11.6519 9.07422 11.695 9.1081 11.7351 9.17894C11.7782 9.24978 11.8121 9.32062 11.8059 9.33294C11.7998 9.34526 11.7536 9.2929 11.7104 9.22206C11.6673 9.15122 11.6427 9.08346 11.6519 9.07422Z" fill="#FF8500"/>
</g>
<g style="mix-blend-mode:screen">
<path d="M6.44296 7.5941C6.43372 7.5787 6.40292 7.60642 6.36596 7.6557C6.329 7.70498 6.30128 7.76042 6.31052 7.7789C6.31976 7.7943 6.3598 7.76658 6.39676 7.71422C6.43372 7.66186 6.4522 7.6095 6.44296 7.5941Z" fill="#FFC715"/>
</g>
<defs>
<filter id="filter0_d_6827_101592" x="5.05664" y="4.11719" width="8.15625" height="10.6094" filterUnits="userSpaceOnUse" color-interpolation-filters="sRGB">
<feFlood flood-opacity="0" result="BackgroundImageFix"/>
<feColorMatrix in="SourceAlpha" type="matrix" values="0 0 0 0 0 0 0 0 0 0 0 0 0 0 0 0 0 0 127 0" result="hardAlpha"/>
<feOffset dy="1"/>
<feComposite in2="hardAlpha" operator="out"/>
<feColorMatrix type="matrix" values="0 0 0 0 0 0 0 0 0 0 0 0 0 0 0 0 0 0 0.2 0"/>
<feBlend mode="normal" in2="BackgroundImageFix" result="effect1_dropShadow_6827_101592"/>
<feBlend mode="normal" in="SourceGraphic" in2="effect1_dropShadow_6827_101592" result="shape"/>
</filter>
<linearGradient id="paint0_linear_6827_101592" x1="9.87071" y1="18.5586" x2="0.960285" y2="3.12475" gradientUnits="userSpaceOnUse">
<stop stop-color="#D47100"/>
<stop offset="0.69" stop-color="#FFC60D"/>
<stop offset="1" stop-color="#E8810C"/>
</linearGradient>
<radialGradient id="paint1_radial_6827_101592" cx="0" cy="0" r="1" gradientUnits="userSpaceOnUse" gradientTransform="translate(12.621 0.491169) rotate(180) scale(15.5755 15.5755)">
<stop stop-color="#FFEC2B"/>
<stop offset="1" stop-color="#FCB00D"/>
</radialGradient>
<radialGradient id="paint2_radial_6827_101592" cx="0" cy="0" r="1" gradientUnits="userSpaceOnUse" gradientTransform="translate(6.48891 9.85666) rotate(180) scale(10.9956)">
<stop offset="0.51" stop-color="white"/>
<stop offset="0.69" stop-color="#FFE6C2"/>
<stop offset="1" stop-color="#FFB74B"/>
</radialGradient>
<linearGradient id="paint3_linear_6827_101592" x1="15.2423" y1="13.2015" x2="8.38927" y2="1.33123" gradientUnits="userSpaceOnUse">
<stop stop-color="#D95F00"/>
<stop offset="0.31" stop-color="#FFB121"/>
<stop offset="1" stop-color="#CC5810"/>
</linearGradient>
<radialGradient id="paint4_radial_6827_101592" cx="0" cy="0" r="1" gradientUnits="userSpaceOnUse" gradientTransform="translate(7.93869 4.14002) rotate(150) scale(7.74563)">
<stop stop-color="#FFE150"/>
<stop offset="0.17" stop-color="#FFCD2F"/>
<stop offset="0.32" stop-color="#FFC11B"/>
<stop offset="0.42" stop-color="#FFBD14"/>
<stop offset="0.53" stop-color="#FBB416"/>
<stop offset="0.7" stop-color="#F39E1B"/>
<stop offset="0.92" stop-color="#E57925"/>
<stop offset="0.98" stop-color="#E26F28"/>
</radialGradient>
<radialGradient id="paint5_radial_6827_101592" cx="0" cy="0" r="1" gradientUnits="userSpaceOnUse" gradientTransform="translate(6.59468 8.83802) rotate(150) scale(3.67163 5.17131)">
<stop offset="0.67"/>
<stop offset="0.7" stop-color="#070705"/>
<stop offset="0.74" stop-color="#1D1C15"/>
<stop offset="0.8" stop-color="#413D2F"/>
<stop offset="0.86" stop-color="#726C54"/>
<stop offset="0.93" stop-color="#B2A982"/>
<stop offset="1" stop-color="#FFF2BB"/>
</radialGradient>
</defs>
</svg>
