<svg width="20" height="20" viewBox="0 0 20 20" fill="none" xmlns="http://www.w3.org/2000/svg">
<path fill-rule="evenodd" clip-rule="evenodd" d="M10.1768 13.2659H8.98679C8.64179 13.2659 8.36179 12.9859 8.36179 12.6409C8.36179 12.2959 8.64179 12.0159 8.98679 12.0159H10.1768C10.5218 12.0159 10.8018 12.2959 10.8018 12.6409C10.8018 12.9859 10.5218 13.2659 10.1768 13.2659ZM6.9401 13.2659H5.7501C5.4051 13.2659 5.1251 12.9859 5.1251 12.6409C5.1251 12.2959 5.4051 12.0159 5.7501 12.0159H6.9401C7.2851 12.0159 7.5651 12.2959 7.5651 12.6409C7.5651 12.9859 7.2851 13.2659 6.9401 13.2659ZM2.33594 8.82422C2.19786 8.82422 2.08594 8.93613 2.08594 9.07422V12.7409C2.08594 15.0684 3.58094 16.6326 5.8051 16.6326H14.1968C16.4226 16.6326 17.9176 15.0684 17.9176 12.7409V9.07422C17.9176 8.93613 17.8057 8.82422 17.6676 8.82422H2.33594Z" fill="white"/>
<path fill-rule="evenodd" clip-rule="evenodd" d="M17.6676 7.57552C17.8057 7.57552 17.9176 7.4636 17.9176 7.32552V7.25885C17.9176 4.93135 16.4226 3.36719 14.1976 3.36719H5.8051C3.58094 3.36719 2.08594 4.93135 2.08594 7.25885V7.32552C2.08594 7.4636 2.19786 7.57552 2.33594 7.57552H17.6676Z" fill="white"/>
</svg>
