<svg width="24" height="24" viewBox="0 0 24 24" fill="none" xmlns="http://www.w3.org/2000/svg">
<g clip-path="url(#clip0_5086_108996)">
<path d="M18.7754 14.4727C21.2097 14.9722 22.0999 16.5914 22.0999 17.9437" stroke="#98A2B3" stroke-width="1.5" stroke-linecap="round" stroke-linejoin="round"/>
<path d="M18.2344 6.20703C19.3426 6.56469 20.1419 7.60588 20.1374 8.83327C20.1328 10.0084 19.3914 11.0099 18.3513 11.3993" stroke="#98A2B3" stroke-width="1.5" stroke-linecap="round" stroke-linejoin="round"/>
<path d="M5.69141 19.9992C5.69141 17.8907 7.35594 15.2656 12.1497 15.2656C16.9435 15.2656 18.608 17.8714 18.608 19.9811" stroke="#98A2B3" stroke-width="1.5" stroke-linecap="round" stroke-linejoin="round"/>
<path fill-rule="evenodd" clip-rule="evenodd" d="M16.2765 8.12501C16.2765 10.4038 14.4292 12.25 12.1515 12.25C9.87273 12.25 8.02539 10.4038 8.02539 8.12501C8.02539 5.8462 9.87273 4 12.1515 4C14.4292 4 16.2765 5.8462 16.2765 8.12501Z" stroke="#98A2B3" stroke-width="1.5" stroke-linecap="round" stroke-linejoin="round"/>
<path d="M5.5257 14.4727C3.09134 14.9722 2.20117 16.5914 2.20117 17.9437" stroke="#98A2B3" stroke-width="1.5" stroke-linecap="round" stroke-linejoin="round"/>
<path d="M6.06706 6.20703C4.95888 6.56469 4.15954 7.60588 4.16408 8.83327C4.16862 10.0084 4.91006 11.0099 5.95011 11.3993" stroke="#98A2B3" stroke-width="1.5" stroke-linecap="round" stroke-linejoin="round"/>
</g>
<defs>
<clipPath id="clip0_5086_108996">
<rect width="24" height="24" fill="white"/>
</clipPath>
</defs>
</svg>
