<svg width="24" height="24" viewBox="0 0 24 24" fill="none" xmlns="http://www.w3.org/2000/svg">
<g clip-path="url(#clip0_6827_89088)">
<path d="M9.86537 2.88538C11.0358 1.70638 12.9465 1.70638 14.1269 2.87638L14.8572 3.60538C15.1373 3.88538 15.5174 4.04638 15.9176 4.04638H16.9479C18.6085 4.04638 19.959 5.39538 19.959 7.05538V8.08638C19.959 8.48538 20.1191 8.86538 20.3992 9.14538L21.1194 9.86538C21.6897 10.4254 21.9998 11.1854 21.9998 11.9854C22.0098 12.7854 21.6997 13.5464 21.1395 14.1154L20.3992 14.8554C20.1191 15.1354 19.959 15.5154 19.959 15.9164V16.9454C19.959 18.6054 18.6085 19.9564 16.9479 19.9564H15.9176C15.5174 19.9564 15.1373 20.1154 14.8572 20.3954L14.1369 21.1154C13.5467 21.7064 12.7764 21.9954 12.0061 21.9954C11.2359 21.9954 10.4656 21.7064 9.87537 21.1264L9.14511 20.3954C8.865 20.1154 8.48487 19.9564 8.08472 19.9564H7.05435C5.39375 19.9564 4.04326 18.6054 4.04326 16.9454V15.9164C4.04326 15.5154 3.8832 15.1354 3.6031 14.8454L2.88284 14.1354C1.71241 12.9664 1.70241 11.0554 2.87283 9.87638L3.6031 9.14538C3.8832 8.86538 4.04326 8.48538 4.04326 8.07538V7.05538C4.04326 5.39538 5.39375 4.04638 7.05435 4.04638H8.08472C8.48487 4.04638 8.865 3.88538 9.14511 3.60538L9.86537 2.88538ZM14.5771 13.6954C14.0869 13.6954 13.6968 14.0864 13.6968 14.5654C13.6968 15.0554 14.0869 15.4454 14.5771 15.4454C15.0572 15.4454 15.4474 15.0554 15.4474 14.5654C15.4474 14.0864 15.0572 13.6954 14.5771 13.6954ZM15.1873 8.80538C14.8472 8.46638 14.297 8.46638 13.9569 8.80538L8.81499 13.9454C8.47486 14.2854 8.47486 14.8454 8.81499 15.1854C8.97504 15.3554 9.19512 15.4454 9.42521 15.4454C9.66529 15.4454 9.88537 15.3554 10.0454 15.1854L15.1873 10.0464C15.5274 9.70638 15.5274 9.14538 15.1873 8.80538ZM9.43521 8.55538C8.95504 8.55538 8.55489 8.94538 8.55489 9.42538C8.55489 9.91638 8.95504 10.3054 9.43521 10.3054C9.91539 10.3054 10.3055 9.91638 10.3055 9.42538C10.3055 8.94538 9.91539 8.55538 9.43521 8.55538Z" fill="#2E73CE"/>
</g>
<defs>
<clipPath id="clip0_6827_89088">
<rect width="24" height="24" fill="white"/>
</clipPath>
</defs>
</svg>
