<svg width="41" height="40" viewBox="0 0 41 40" fill="none" xmlns="http://www.w3.org/2000/svg">
<path d="M0.5 20C0.5 8.95431 9.45431 0 20.5 0C31.5457 0 40.5 8.95431 40.5 20C40.5 31.0457 31.5457 40 20.5 40C9.45431 40 0.5 31.0457 0.5 20Z" fill="#2E73CE" fill-opacity="0.1"/>
<g clip-path="url(#clip0_5112_98162)">
<path d="M18.3654 10.8854C19.5358 9.70638 21.4465 9.70638 22.6269 10.8764L23.3572 11.6054C23.6373 11.8854 24.0174 12.0464 24.4176 12.0464H25.4479C27.1085 12.0464 28.459 13.3954 28.459 15.0554V16.0864C28.459 16.4854 28.6191 16.8654 28.8992 17.1454L29.6194 17.8654C30.1897 18.4254 30.4998 19.1854 30.4998 19.9854C30.5098 20.7854 30.1997 21.5464 29.6395 22.1154L28.8992 22.8554C28.6191 23.1354 28.459 23.5154 28.459 23.9164V24.9454C28.459 26.6054 27.1085 27.9564 25.4479 27.9564H24.4176C24.0174 27.9564 23.6373 28.1154 23.3572 28.3954L22.6369 29.1154C22.0467 29.7064 21.2764 29.9954 20.5061 29.9954C19.7359 29.9954 18.9656 29.7064 18.3754 29.1264L17.6451 28.3954C17.365 28.1154 16.9849 27.9564 16.5847 27.9564H15.5543C13.8937 27.9564 12.5433 26.6054 12.5433 24.9454V23.9164C12.5433 23.5154 12.3832 23.1354 12.1031 22.8454L11.3828 22.1354C10.2124 20.9664 10.2024 19.0554 11.3728 17.8764L12.1031 17.1454C12.3832 16.8654 12.5433 16.4854 12.5433 16.0754V15.0554C12.5433 13.3954 13.8937 12.0464 15.5543 12.0464H16.5847C16.9849 12.0464 17.365 11.8854 17.6451 11.6054L18.3654 10.8854ZM23.0771 21.6954C22.5869 21.6954 22.1968 22.0864 22.1968 22.5654C22.1968 23.0554 22.5869 23.4454 23.0771 23.4454C23.5572 23.4454 23.9474 23.0554 23.9474 22.5654C23.9474 22.0864 23.5572 21.6954 23.0771 21.6954ZM23.6873 16.8054C23.3472 16.4664 22.797 16.4664 22.4569 16.8054L17.315 21.9454C16.9749 22.2854 16.9749 22.8454 17.315 23.1854C17.475 23.3554 17.6951 23.4454 17.9252 23.4454C18.1653 23.4454 18.3854 23.3554 18.5454 23.1854L23.6873 18.0464C24.0274 17.7064 24.0274 17.1454 23.6873 16.8054ZM17.9352 16.5554C17.455 16.5554 17.0549 16.9454 17.0549 17.4254C17.0549 17.9164 17.455 18.3054 17.9352 18.3054C18.4154 18.3054 18.8055 17.9164 18.8055 17.4254C18.8055 16.9454 18.4154 16.5554 17.9352 16.5554Z" fill="#2E73CE"/>
</g>
<defs>
<clipPath id="clip0_5112_98162">
<rect width="24" height="24" fill="white" transform="translate(8.5 8)"/>
</clipPath>
</defs>
</svg>
