<svg width="102" height="102" viewBox="0 0 102 102" fill="none" xmlns="http://www.w3.org/2000/svg">
<path d="M100.901 51C100.901 64.9764 95.1921 77.5748 86.0386 86.6299C77.0819 95.5866 64.6803 101 50.9992 101C37.4166 101 25.015 95.4882 15.9599 86.6299C6.80632 77.5748 1.09766 64.9764 1.09766 51C1.09766 23.3425 23.4402 1 50.9992 1C78.5583 1 100.901 23.4409 100.901 51Z" fill="#F2F4F7" stroke="#D0D5DD" stroke-width="1.9685" stroke-miterlimit="10"/>
<path d="M86.0397 24.8164V86.6274C77.083 95.5841 64.6814 100.997 51.0003 100.997C37.4176 100.997 25.0161 95.4857 15.9609 86.6274V24.8164H86.0397Z" fill="white" stroke="#D0D5DD" stroke-width="1.9685" stroke-miterlimit="10"/>
<path d="M64.1569 41.0006L42.0162 63.1413L37.0665 58.1916L59.2071 36.0509L64.1569 41.0006Z" fill="#EF476F" stroke="#A7324E" stroke-linecap="square"/>
<path d="M37.0509 41.0001L42.0011 36.0509L64.1556 58.21L59.2054 63.1593L37.0509 41.0001Z" fill="#EF476F" stroke="#A7324E" stroke-linecap="square"/>
<path d="M68.9127 69.4062H33.0859V73.9338H68.9127V69.4062Z" fill="#D0D5DD"/>
<path d="M68.9127 79.3477H33.0859V83.8752H68.9127V79.3477Z" fill="#D0D5DD"/>
<path d="M60.1508 89.3867H41.8438V93.9143H60.1508V89.3867Z" fill="#D0D5DD"/>
</svg>
