<svg width="24" height="24" viewBox="0 0 24 24" fill="none" xmlns="http://www.w3.org/2000/svg">
<g clip-path="url(#clip0_5903_85556)">
<path d="M6.42 17.7298C4.19 16.2698 2.75 14.0698 2.75 12.1398C2.75 8.85984 6.89 4.83984 12 4.83984C14.09 4.83984 16.03 5.50984 17.59 6.54984" stroke="#344054" stroke-width="1.5" stroke-linecap="round" stroke-linejoin="round"/>
<path d="M19.8492 8.60938C20.7402 9.73937 21.2592 10.9893 21.2592 12.1393C21.2592 15.4193 17.1092 19.4393 11.9992 19.4393C11.0892 19.4393 10.2002 19.3093 9.36914 19.0793" stroke="#344054" stroke-width="1.5" stroke-linecap="round" stroke-linejoin="round"/>
<path d="M9.76486 14.3676C9.16986 13.7786 8.83686 12.9756 8.83986 12.1386C8.83586 10.3936 10.2478 8.97567 11.9938 8.97267C12.8338 8.97067 13.6398 9.30367 14.2338 9.89767" stroke="#344054" stroke-width="1.5" stroke-linecap="round" stroke-linejoin="round"/>
<path d="M15.1093 12.6992C14.8753 13.9912 13.8643 15.0042 12.5723 15.2412" stroke="#344054" stroke-width="1.5" stroke-linecap="round" stroke-linejoin="round"/>
<path d="M19.8912 4.25L4.11719 20.024" stroke="#344054" stroke-width="1.5" stroke-linecap="round" stroke-linejoin="round"/>
</g>
<defs>
<clipPath id="clip0_5903_85556">
<rect width="24" height="24" fill="white"/>
</clipPath>
</defs>
</svg>
