<svg width="24" height="25" viewBox="0 0 24 25" fill="none" xmlns="http://www.w3.org/2000/svg">
<g clip-path="url(#clip0_5701_100703)">
<path d="M7.26072 20.0856L6.53216 20.4348C5.76531 20.8019 4.87798 20.2424 4.87891 19.3915L4.88825 7.6273C4.88825 5.30154 6.1819 3.85938 8.50393 3.85938H15.5111C17.8387 3.85938 19.1044 5.30154 19.1044 7.6273L19.1212 19.3897C19.1221 20.2406 18.2348 20.801 17.467 20.433L16.7431 20.0864C16.3079 19.8773 15.8044 19.8623 15.357 20.0454L13.2964 20.8851C12.4661 21.2241 11.5348 21.2241 10.7045 20.8851L8.64683 20.0454C8.20036 19.8623 7.69691 19.8773 7.26072 20.0856Z" stroke="#98A2B3" stroke-width="1.44" stroke-linecap="round" stroke-linejoin="round"/>
<path d="M14.7157 14.6093H9.28516M12.9055 10.3906H9.28516" stroke="#98A2B3" stroke-width="1.44" stroke-linecap="round" stroke-linejoin="round"/>
</g>
<defs>
<clipPath id="clip0_5701_100703">
<rect width="24" height="24"  transform="translate(0 0.5)"/>
</clipPath>
</defs>
</svg>
