<svg width="25" height="25" viewBox="0 0 25 25" fill="none" xmlns="http://www.w3.org/2000/svg">
<g clip-path="url(#clip0_5701_100028)">
<path d="M9.48925 21.2714V18.2047C9.48923 17.4246 10.1251 16.7908 10.913 16.7856H13.7991C14.5908 16.7856 15.2325 17.4209 15.2325 18.2047V21.2809C15.2324 21.9432 15.7663 22.4845 16.4351 22.5H18.3591C20.2772 22.5 21.832 20.9607 21.832 19.0618V10.3378C21.8218 9.59083 21.4675 8.88935 20.87 8.43303L14.2898 3.1853C13.137 2.27157 11.4982 2.27157 10.3454 3.1853L3.79406 8.44256C3.19429 8.89702 2.83942 9.59967 2.83203 10.3474V19.0618C2.83203 20.9607 4.38691 22.5 6.30494 22.5H8.22899C8.91439 22.5 9.47001 21.9499 9.47001 21.2714" stroke="#FCFCFD" stroke-width="1.5" stroke-linecap="round" stroke-linejoin="round"/>
</g>
<defs>
<clipPath id="clip0_5701_100028">
<rect width="24" height="24" fill="white" transform="translate(0.332031 0.5)"/>
</clipPath>
</defs>
</svg>
