<svg width="24" height="24" viewBox="0 0 24 24" fill="none" xmlns="http://www.w3.org/2000/svg">
<path d="M7.78216 3H16.2169C19.165 3 21 5.08119 21 8.02638V15.9736C21 18.9188 19.165 21 16.2159 21H7.78216C4.83405 21 3 18.9188 3 15.9736V8.02638C3 5.08119 4.84281 3 7.78216 3Z" stroke="#EF476F" stroke-width="1.5" stroke-linecap="round" stroke-linejoin="round"/>
<path d="M11.8464 8.82812C9.91218 8.82812 8.34375 10.3966 8.34375 12.3308C8.34375 14.2651 9.91218 15.8335 11.8464 15.8335C13.7807 15.8335 15.3492 14.2651 15.3492 12.3308C15.3492 10.3966 13.7807 8.82812 11.8464 8.82812Z" stroke="#EF476F" stroke-width="1.5" stroke-linecap="round" stroke-linejoin="round"/>
<path d="M16.8651 7.36374V7.43274M17.1471 7.37875C17.1471 7.53575 17.0201 7.66275 16.8631 7.66275C16.7061 7.66275 16.5781 7.53575 16.5781 7.37875C16.5781 7.22175 16.7061 7.09375 16.8631 7.09375C17.0201 7.09375 17.1471 7.22175 17.1471 7.37875Z" stroke="#EF476F" stroke-width="1.5" stroke-linecap="round" stroke-linejoin="round"/>
</svg>
