<svg width="24" height="24" viewBox="0 0 24 24" fill="none" xmlns="http://www.w3.org/2000/svg">
<path d="M8.55587 15.1305V15.0665M8.29688 15.1165C8.29688 14.9725 8.41388 14.8555 8.55788 14.8555C8.70188 14.8555 8.81888 14.9725 8.81888 15.1165C8.81888 15.2605 8.70188 15.3775 8.55788 15.3775C8.41388 15.3775 8.29688 15.2605 8.29688 15.1165Z" stroke="#D0D5DD" stroke-width="1.5" stroke-linecap="round" stroke-linejoin="round"/>
<path d="M12.0012 15.1305V15.0665M11.7422 15.1165C11.7422 14.9725 11.8582 14.8555 12.0022 14.8555C12.1462 14.8555 12.2632 14.9725 12.2632 15.1165C12.2632 15.2605 12.1462 15.3775 12.0022 15.3775C11.8582 15.3775 11.7422 15.2605 11.7422 15.1165Z" stroke="#D0D5DD" stroke-width="1.5" stroke-linecap="round" stroke-linejoin="round"/>
<path d="M15.4426 15.1305V15.0665M15.1836 15.1165C15.1836 14.9725 15.3006 14.8555 15.4446 14.8555C15.5886 14.8555 15.7046 14.9725 15.7046 15.1165C15.7046 15.2605 15.5886 15.3775 15.4446 15.3775C15.3006 15.3775 15.1836 15.2605 15.1836 15.1165Z" stroke="#D0D5DD" stroke-width="1.5" stroke-linecap="round" stroke-linejoin="round"/>
<path d="M16.4517 9.41905V7.32305C16.4217 4.86605 14.4047 2.89905 11.9477 2.93005C9.54169 2.96005 7.59569 4.89805 7.55469 7.30305V9.41905" stroke="#D0D5DD" stroke-width="1.5" stroke-linecap="round" stroke-linejoin="round"/>
<path d="M9.30376 20.97H14.6958C16.2908 20.97 17.0888 20.97 17.7048 20.674C18.3188 20.379 18.8148 19.883 19.1098 19.269C19.4058 18.653 19.4058 17.855 19.4058 16.26V14.128C19.4058 12.533 19.4058 11.735 19.1098 11.12C18.8148 10.505 18.3188 10.009 17.7048 9.71397C17.0888 9.41797 16.2908 9.41797 14.6958 9.41797H9.30376C7.70876 9.41797 6.91075 9.41797 6.29475 9.71397C5.68075 10.009 5.18476 10.505 4.88976 11.12C4.59376 11.735 4.59375 12.533 4.59375 14.128V16.26C4.59375 17.855 4.59376 18.653 4.88976 19.269C5.18476 19.883 5.68075 20.379 6.29475 20.674C6.91075 20.97 7.70876 20.97 9.30376 20.97Z" stroke="#D0D5DD" stroke-width="1.5" stroke-linecap="round" stroke-linejoin="round"/>
</svg>
