<svg width="24" height="24" viewBox="0 0 24 24" fill="none" xmlns="http://www.w3.org/2000/svg">
<g clip-path="url(#clip0_5903_85177)">
<path d="M18.3738 6.61751L18.3748 17.3815C18.3748 19.38 16.7548 21 14.7563 21H9.24154C7.24403 21 5.62403 19.38 5.62403 17.3825L5.62305 6.61849C5.62305 4.62 7.24305 3 9.24057 3H14.7563C16.7538 3 18.3738 4.62 18.3738 6.61751Z" stroke="#D0D5DD" stroke-width="1.5" stroke-linecap="round" stroke-linejoin="round"/>
<path d="M10.6094 6.6875H13.3931" stroke="#D0D5DD" stroke-width="1.5" stroke-linecap="round" stroke-linejoin="round"/>
<path d="M12.0002 17.3326V17.2843M12.0002 17.0312C11.862 17.0312 11.75 17.1432 11.75 17.281C11.75 17.4192 11.862 17.5312 12.0002 17.5312C12.1385 17.5312 12.2505 17.4192 12.2505 17.281C12.2505 17.1432 12.1385 17.0312 12.0002 17.0312Z" stroke="#D0D5DD" stroke-width="1.5" stroke-linecap="round" stroke-linejoin="round"/>
</g>
<defs>
<clipPath id="clip0_5903_85177">
<rect width="24" height="24" fill="white"/>
</clipPath>
</defs>
</svg>
