<svg width="16" height="16" viewBox="0 0 16 16" fill="none" xmlns="http://www.w3.org/2000/svg">
<g clip-path="url(#clip0_5769_97040)">
<path d="M11.9466 9.54797C11.7739 9.7153 11.6946 9.9573 11.7339 10.1946L12.3266 13.4746C12.3766 13.7526 12.2592 14.034 12.0266 14.1946C11.7986 14.3613 11.4952 14.3813 11.2466 14.248L8.2939 12.708C8.19124 12.6533 8.07723 12.624 7.96057 12.6206H7.7799C7.71724 12.63 7.6559 12.65 7.5999 12.6806L4.64657 14.228C4.50057 14.3013 4.33524 14.3273 4.17323 14.3013C3.77857 14.2266 3.51523 13.8506 3.5799 13.454L4.17323 10.174C4.21257 9.93464 4.13323 9.6913 3.96057 9.5213L1.55323 7.18797C1.3519 6.99263 1.2819 6.6993 1.3739 6.43464C1.46323 6.17064 1.69123 5.97797 1.96657 5.93464L5.2799 5.45397C5.5319 5.42797 5.75323 5.27464 5.86657 5.04797L7.32657 2.05464C7.36123 1.98797 7.4059 1.92664 7.4599 1.87464L7.5199 1.82797C7.55123 1.7933 7.58723 1.76464 7.62723 1.7413L7.6999 1.71464L7.81324 1.66797H8.0939C8.34457 1.69397 8.56524 1.84397 8.68057 2.06797L10.1599 5.04797C10.2666 5.26597 10.4739 5.4173 10.7132 5.45397L14.0266 5.93464C14.3066 5.97464 14.5406 6.16797 14.6332 6.43464C14.7206 6.70197 14.6452 6.9953 14.4399 7.18797L11.9466 9.54797Z" fill="#FFB931"/>
</g>
<defs>
<clipPath id="clip0_5769_97040">
<rect width="16" height="16" fill="white"/>
</clipPath>
</defs>
</svg>
