<svg width="80" height="80" viewBox="0 0 80 80" fill="none" xmlns="http://www.w3.org/2000/svg">
<path d="M71.1875 40C71.1875 48.7352 67.6196 56.6092 61.8986 62.2687C56.3007 67.8666 48.5497 71.25 39.999 71.25C31.5099 71.25 23.7589 67.8051 18.0994 62.2687C12.3785 56.6092 8.81055 48.7352 8.81055 40C8.81055 22.7141 22.7746 8.75 39.999 8.75C57.2234 8.75 71.1875 22.7756 71.1875 40Z" fill="#F2F4F7" stroke="#D0D5DD" stroke-width="1.23031" stroke-miterlimit="10"/>
<path d="M61.8988 23.6367V62.2686C56.3009 67.8665 48.5499 71.2499 39.9992 71.2499C31.51 71.2499 23.7591 67.805 18.0996 62.2686V23.6367H61.8988Z" fill="white" stroke="#D0D5DD" stroke-width="1.23031" stroke-miterlimit="10"/>
<path d="M37.8742 40.4522L47.803 30.5234L50.7173 33.4378L37.9289 46.2261L37.9148 46.212L37.8601 46.2668L29.291 37.6977L32.2054 34.7833L37.8742 40.4522Z" fill="#49D4AE" stroke="#33947A" stroke-width="1.23031" stroke-miterlimit="10"/>
<path d="M51.1945 51.5039H28.8027V54.3336H51.1945V51.5039Z" fill="#D0D5DD"/>
<path d="M51.1945 57.7188H28.8027V60.5485H51.1945V57.7188Z" fill="#D0D5DD"/>
<path d="M45.7193 63.9922H34.2773V66.8219H45.7193V63.9922Z" fill="#D0D5DD"/>
</svg>
