<svg width="41" height="40" viewBox="0 0 41 40" fill="none" xmlns="http://www.w3.org/2000/svg">
<path d="M0.5 20C0.5 8.95431 9.45431 0 20.5 0C31.5457 0 40.5 8.95431 40.5 20C40.5 31.0457 31.5457 40 20.5 40C9.45431 40 0.5 31.0457 0.5 20Z" fill="#49D4AE" fill-opacity="0.1"/>
<g clip-path="url(#clip0_5112_98171)">
<path fill-rule="evenodd" clip-rule="evenodd" d="M28.75 17.6254C28.75 17.7911 28.6157 17.9254 28.45 17.9254H12.55C12.3843 17.9254 12.25 17.7911 12.25 17.6254V16.0114C12.25 14.0424 13.852 12.4414 15.82 12.4414H25.18C27.148 12.4414 28.75 14.0424 28.75 16.0114V17.6254ZM24.482 24.4134C23.606 24.4134 22.896 23.7044 22.896 22.8264C22.896 21.9494 23.606 21.2404 24.482 21.2404C25.358 21.2404 26.069 21.9494 26.069 22.8264C26.069 23.7044 25.358 24.4134 24.482 24.4134ZM25.18 10.9414H15.82C13.024 10.9414 10.75 13.2154 10.75 16.0114V23.9914C10.75 26.7874 13.024 29.0624 15.82 29.0624H25.18C26.958 29.0624 28.519 28.1384 29.424 26.7494L29.494 26.7134V26.6214C29.964 25.8524 30.25 24.9574 30.25 23.9914V16.0114C30.25 13.2154 27.976 10.9414 25.18 10.9414Z" fill="#49D4AE"/>
<path fill-rule="evenodd" clip-rule="evenodd" d="M19.4988 13.7673C18.5002 14.3927 16.0051 15.9956 14.8768 16.7214C14.709 16.8293 14.7871 17.0882 14.9866 17.0882H25.4755C25.7113 17.0882 25.8549 16.8286 25.7296 16.6288L24.6938 14.9773C23.5918 13.2113 21.2648 12.6693 19.4988 13.7673Z" fill="#49D4AE"/>
</g>
<defs>
<clipPath id="clip0_5112_98171">
<rect width="24" height="24" fill="white" transform="translate(8.5 8)"/>
</clipPath>
</defs>
</svg>
